PathFileType	4	(X/Y/Z)	 s07c0302.trc
DataRate	CameraRate	NumFrames	NumMarkers	Units	OrigDataRate	OrigDataStartFrame	OrigNumFrames
200	200	4	48	mm	200	1	2000
Frame#	Time	racr			lacr			c7			jug			rlel			rdr			llel			ldr			s2			lic			ric			lasi			rasi			rpsi			lpsi			rgt			lgt			rth1			rth2			rth3			rth4			rlfc			rmfc			rsh1			rsh2			rsh3			rsh4			rlmal			rcal			rtoe			rmt5			lth1			lth2			lth4			lth3			llfc			lmfc			lsh1			lsh2			lsh3			lsh4			llmal			lcal			ltoe			lmt5			SBIKE			LBIKE			RBIKE			
		X1	Y1	Z1	X2	Y2	Z2	X3	Y3	Z3	X4	Y4	Z4	X5	Y5	Z5	X6	Y6	Z6	X7	Y7	Z7	X8	Y8	Z8	X9	Y9	Z9	X10	Y10	Z10	X11	Y11	Z11	X12	Y12	Z12	X13	Y13	Z13	X14	Y14	Z14	X15	Y15	Z15	X16	Y16	Z16	X17	Y17	Z17	X18	Y18	Z18	X19	Y19	Z19	X20	Y20	Z20	X21	Y21	Z21	X22	Y22	Z22	X23	Y23	Z23	X24	Y24	Z24	X25	Y25	Z25	X26	Y26	Z26	X27	Y27	Z27	X28	Y28	Z28	X29	Y29	Z29	X30	Y30	Z30	X31	Y31	Z31	X32	Y32	Z32	X33	Y33	Z33	X34	Y34	Z34	X35	Y35	Z35	X36	Y36	Z36	X37	Y37	Z37	X38	Y38	Z38	X39	Y39	Z39	X40	Y40	Z40	X41	Y41	Z41	X42	Y42	Z42	X43	Y43	Z43	X44	Y44	Z44	X45	Y45	Z45	X46	Y46	Z46	X47	Y47	Z47	X48	Y48	Z48	
1	0.0050	503.331617	1318.370379	-71.263478	484.543810	1317.181410	-352.100013	484.863678	1344.727875	-218.745168	421.256797	1217.080401	-216.334680	466.583474	1008.279818	84.698956	709.908228	915.215460	-38.355614	466.302252	1024.903611	-519.543553	718.098008	916.565562	-410.944376	-122.440256	1227.454730	-234.660115	41.060068	1230.229233	-349.543160	52.611659	1214.867814	-78.963767	63.773785	1152.788926	-348.298630	47.770647	1162.589418	-96.186242	-86.227381	1257.121016	-181.585712	-67.547730	1266.353798	-287.379703	-35.335897	1128.335744	-33.583922	-38.543763	1109.374575	-411.804748	99.584874	1057.552256	-39.191343	183.521595	1034.996435	-51.785733	249.141325	979.997402	-50.690314	197.861799	1066.539758	-67.659300	363.446111	893.481926	-88.766477	355.297218	878.908985	-193.278621	318.794375	756.363403	-63.463091	310.541934	668.955315	-83.162779	264.699813	595.543574	-78.006560	325.529138	668.243744	-120.175216	213.316445	467.869048	-80.074324	147.974358	423.330707	-108.380271	438.536236	417.190269	-119.087380	362.418103	379.517840	-49.451858	19.340392	1002.851074	-419.666711	90.838412	952.587011	-424.079184	119.244436	973.622516	-415.043880	127.774419	870.059260	-422.066182	226.239784	713.956645	-390.989546	214.689003	698.154468	-292.098621	131.330942	596.325389	-411.344237	91.829508	522.631148	-389.951075	18.954220	470.166844	-399.192503	93.995935	524.895912	-348.612278	-75.470354	373.361045	-396.605875	-155.605779	348.291248	-362.512484	123.748566	274.168559	-355.738733	41.055244	265.603002	-421.260594	-259.398574	968.917945	-232.957096	-75.882195	83.566608	-438.358068	-82.591750	79.045810	-40.777331	
2	0.0100	503.293962	1318.358491	-71.206309	484.525576	1317.218022	-352.033384	484.844669	1344.727100	-218.720155	421.213562	1217.107827	-216.290071	466.571488	1008.255534	84.711922	709.899266	915.238680	-38.358743	466.305221	1024.921646	-519.554574	718.112110	916.606083	-411.000819	-122.433189	1227.449575	-234.670997	41.079426	1230.290391	-349.557265	52.583567	1214.879376	-78.944847	63.752540	1152.815573	-348.314145	47.759967	1162.601247	-96.197184	-86.241206	1257.109280	-181.588670	-67.542857	1266.374996	-287.371157	-35.352565	1128.327914	-33.585960	-38.543307	1109.395932	-411.818748	99.546711	1057.565068	-39.184617	183.485976	1035.077561	-51.781482	249.131032	980.059697	-50.700913	197.836699	1066.582717	-67.650529	363.477600	893.530535	-88.807998	355.299378	878.960353	-193.263371	318.819944	756.419504	-63.466502	310.582185	669.046881	-83.168606	264.736767	595.627156	-78.007172	325.531309	668.305973	-120.168936	213.333983	467.952278	-80.078571	148.003458	423.453152	-108.384636	438.537347	417.205060	-119.092617	362.392510	379.568253	-49.453058	19.337107	1002.864776	-419.683135	90.838268	952.599566	-424.055881	119.234356	973.621320	-415.032656	127.776658	870.072574	-422.067832	226.204486	713.960780	-390.973237	214.682251	698.156060	-292.090996	131.289474	596.322042	-411.368701	91.817360	522.606298	-389.930659	18.944814	470.129344	-399.204856	93.993107	524.898344	-348.591062	-75.495025	373.328774	-396.586158	-155.608713	348.249777	-362.506541	123.750682	274.170693	-355.757819	41.061278	265.586021	-421.255706	-259.410042	968.915536	-232.969430	-75.892447	83.585883	-438.354285	-82.674606	79.200496	-40.747613	
3	0.0150	503.267286	1318.346657	-71.173145	484.511626	1317.208242	-351.995399	484.819637	1344.715937	-218.650854	421.192586	1217.122293	-216.275064	466.555409	1008.247351	84.739734	709.877304	915.255059	-38.357659	466.320419	1024.946010	-519.540807	718.105826	916.605751	-411.000380	-122.458714	1227.450931	-234.683399	41.115878	1230.288260	-349.597304	52.525721	1214.910123	-78.915859	63.761990	1152.842359	-348.298621	47.717561	1162.661380	-96.177384	-86.276269	1257.110444	-181.579358	-67.560128	1266.364098	-287.377705	-35.375739	1128.333953	-33.586108	-38.536814	1109.400866	-411.814897	99.532990	1057.579849	-39.187075	183.449728	1035.108555	-51.775249	249.120488	980.114537	-50.686183	197.790660	1066.639682	-67.638959	363.491009	893.603670	-88.787212	355.320844	879.019948	-193.233728	318.836143	756.476377	-63.454506	310.584077	669.111981	-83.143535	264.754299	595.682762	-78.002070	325.563310	668.383918	-120.145500	213.373010	468.036424	-80.067108	148.014858	423.538949	-108.394485	438.548216	417.202066	-119.083897	362.398639	379.591172	-49.463936	19.333703	1002.872990	-419.673618	90.838311	952.619170	-424.053472	119.236605	973.640312	-415.009539	127.766227	870.086938	-422.060589	226.170398	713.943577	-390.955445	214.629135	698.151364	-292.060333	131.263020	596.298071	-411.337453	91.781586	522.586585	-389.937705	18.924789	470.108182	-399.203927	93.973454	524.876768	-348.592664	-75.511710	373.285856	-396.591758	-155.616905	348.205741	-362.500121	123.751832	274.157611	-355.752916	41.060389	265.566952	-421.259087	-259.399979	968.908252	-232.964307	-75.898230	83.586451	-438.367485	-82.658343	79.181662	-40.762492	
4	0.0200	503.165007	1318.720601	-70.854249	481.069476	1317.039017	-355.361548	484.816349	1344.693179	-218.598247	421.152831	1217.098683	-216.222392	466.336335	1008.688587	84.922985	709.867577	915.255217	-38.348783	466.561818	1024.854245	-519.298874	718.110009	916.602053	-411.015036	-122.471366	1227.447770	-234.692399	41.053272	1230.303151	-349.578048	52.542733	1214.769529	-78.905076	63.763109	1152.865143	-348.302656	47.701083	1162.667492	-96.174878	-86.283085	1257.105978	-181.595985	-67.495400	1266.306684	-287.277401	-35.566304	1128.219287	-33.561316	-38.556329	1109.416425	-411.821266	99.510109	1057.675886	-39.180647	183.904295	1036.440922	-51.690406	249.129022	980.183614	-50.668517	197.824172	1066.703994	-67.641843	363.504038	893.720556	-88.728285	359.323555	877.707608	-188.202604	318.868054	756.541857	-63.429938	310.421523	669.053380	-83.105239	264.799827	595.753339	-77.995793	325.687678	668.382264	-120.193292	212.569133	468.958445	-79.446256	148.022305	423.640424	-108.381221	438.556375	417.198304	-119.084838	362.409008	379.631094	-49.454063	19.463213	1003.058442	-419.827379	90.429020	948.943282	-416.801012	119.225560	973.686847	-415.038109	127.764575	870.082472	-422.044440	226.175884	713.807475	-390.984846	214.593865	698.126185	-292.036081	131.214609	596.287070	-411.339930	91.877980	522.233081	-390.040537	18.896677	470.074362	-399.194390	94.296991	524.638276	-348.382635	-75.542256	373.531600	-397.039474	-155.617214	348.126467	-362.517175	123.770038	274.137618	-355.753435	41.081208	265.529399	-421.268869	-259.492493	968.914345	-233.325936	-75.903928	83.582840	-438.353819	-82.674292	79.219712	-40.750145	
